<svg width="90" height="80" viewBox="0 0 90 80" fill="none" xmlns="http://www.w3.org/2000/svg">
<path d="M3 1.40598e-06C1.3431 1.40598e-06 0 1.34315 0 3C0 4.65685 1.3431 6 3 6H12.5625L22.875 54.6562C23.283 56.4878 24.4834 58.0123 26 58.0001H76C77.5849 58.0221 79.0427 56.5852 79.0427 55.0001C79.0427 53.415 77.5849 51.9777 76 52.0001H28.4375L27.1562 46H80C81.3432 45.99 82.6123 44.967 82.9062 43.6562L89.9062 13.6563C90.2963 11.9152 88.7842 10.0128 87 10H19.5625L17.9375 2.375C17.6536 1.0429 16.362 -0.00139859 15 1.40598e-06H3ZM20.8125 16H83.2188L77.625 40H25.9062L20.8125 16ZM36 60.0001C30.5127 60.0001 26 64.5127 26 70.0001C26 75.4874 30.5127 80.0001 36 80.0001C41.4873 80.0001 46 75.4874 46 70.0001C46 64.5128 41.4873 60.0001 36 60.0001ZM66 60.0001C60.5127 60.0001 56 64.5127 56 70.0001C56 75.4874 60.5127 80.0001 66 80.0001C71.4873 80.0001 76 75.4874 76 70.0001C76 64.5128 71.4873 60.0001 66 60.0001ZM36 66.0001C38.2447 66.0001 40 67.7554 40 70.0001C40 72.2448 38.2447 74.0001 36 74.0001C33.7555 74.0001 32 72.2447 32 70.0001C32 67.7555 33.7555 66.0001 36 66.0001ZM66 66.0001C68.2447 66.0001 70 67.7554 70 70.0001C70 72.2448 68.2447 74.0001 66 74.0001C63.7555 74.0001 62 72.2447 62 70.0001C62 67.7555 63.7555 66.0001 66 66.0001Z" fill="black"/>
</svg>
