<svg width="82" height="80" viewBox="0 0 82 80" fill="none" xmlns="http://www.w3.org/2000/svg">
<path d="M72.7651 19.099C73.3291 19.6419 73.3785 20.5021 72.818 21.0626L55.1217 38.7552C63.5787 47.0254 72.0671 55.281 80.7641 63.2975C81.3246 63.8122 81.3457 64.7746 80.7817 65.2892C76.0297 70.0624 71.2707 74.8182 66.5013 79.5697C65.976 80.1196 65.1335 80.1443 64.5765 79.6331C61.0971 76.4252 57.1207 72.6779 52.6542 68.4021C48.4557 64.3798 43.8552 59.9169 38.8565 55.0205L17.138 76.7353C16.8948 76.9786 16.5811 77.109 16.2638 77.1302C13.9795 77.4333 11.889 77.7013 10.01 77.9234C8.05 78.1595 6.03364 78.3852 3.96783 78.5967C3.14645 78.6848 2.38501 78.0573 2.43438 77.2077C2.51898 75.3076 2.66704 73.4146 2.84683 71.518C3.05129 69.3958 3.32626 66.9881 3.66821 64.3019C3.68231 63.974 3.81274 63.6532 4.06303 63.4029L25.5351 41.9308C20.3636 36.8756 15.8094 32.381 11.8747 28.4472C8.22958 24.5201 4.15797 20.6811 0.410792 16.7857C-0.121512 16.2534 -0.149714 15.4496 0.403742 14.8539C2.62811 12.8515 4.9301 10.3734 7.06639 8.2371C9.4671 5.84352 12.051 3.24183 14.8148 0.442864C15.407 -0.149372 16.2073 -0.149372 16.7924 0.45344C18.4352 2.15962 20.2119 3.98222 22.1225 5.92458C23.9239 7.76477 25.7429 9.5908 27.5654 11.4133C29.4126 13.2605 31.2634 15.1042 33.1211 16.9408C34.9295 18.7493 36.7591 20.5366 38.5852 22.3274L41.8954 25.5707L59.7433 7.72642C60.272 7.19763 61.1287 7.19763 61.6575 7.72642L63.2649 9.31627L68.6972 3.88394C69.2366 3.34458 70.0439 3.33049 70.6044 3.84869C71.6585 4.87451 72.7019 5.89681 73.7277 6.95088C74.7958 8.04718 75.8675 9.17887 76.9357 10.3421C77.4609 10.9026 77.408 11.7769 76.8722 12.2669L71.4399 17.7027L72.7618 19.0917L72.7651 19.099ZM77.9189 64.3454C76.7415 63.2527 75.5077 62.1034 74.2209 60.8943L67.9884 67.4018C67.4737 67.9376 66.6171 67.9552 66.0812 67.437C65.5454 66.9224 65.5278 66.0658 66.046 65.5299L72.2574 59.0435C71.1012 57.9507 69.9061 56.8155 68.6722 55.6346L65.013 59.456C64.4984 59.9918 63.6418 60.0094 63.1059 59.4912C62.57 58.9766 62.5524 58.12 63.0706 57.5841L66.7228 53.7698C65.503 52.5994 64.2516 51.3973 62.9649 50.1529L56.7429 56.6463C56.2282 57.1822 55.3716 57.1998 54.8357 56.6816C54.2999 56.1669 54.2823 55.3103 54.8005 54.7744L61.026 48.274L57.4585 44.8087L53.8063 48.616C53.2916 49.1518 52.435 49.1695 51.8992 48.6512C51.3633 48.1366 51.3457 47.28 51.8639 46.7441L55.5266 42.9227L53.2141 40.6631L40.7665 53.107C45.7864 58.0247 50.3759 62.4772 54.5253 66.4534C58.5476 70.303 62.1962 73.7471 65.4748 76.782C69.6311 72.64 73.7767 68.4943 77.9188 64.3381L77.9189 64.3454ZM37.7001 25.2439L33.9599 28.9876C33.4346 29.5164 32.578 29.5199 32.0492 28.9946C31.5204 28.4694 31.5169 27.6128 32.0421 27.084L35.7718 23.3508L32.2325 19.8643L25.8659 26.2309C25.3371 26.7597 24.4805 26.7597 23.9517 26.2309C23.4229 25.7021 23.4229 24.8454 23.9517 24.3167L30.3077 17.9607C29.0351 16.6987 27.8048 15.4754 26.6132 14.2839L22.8801 18.0171C22.3548 18.5459 21.4982 18.5494 20.9694 18.0241C20.4406 17.4989 20.4371 16.6423 20.9623 16.1135L24.7026 12.3732C23.5005 11.1676 22.3406 9.99725 21.2196 8.86214L14.8671 15.2146C14.3384 15.7434 13.4817 15.7434 12.9529 15.2146C12.4242 14.6858 12.4242 13.8292 12.9529 13.3004L19.323 6.93035C18.0892 5.67187 16.9082 4.45915 15.7837 3.29589C13.3724 5.7318 11.1022 8.01618 8.97645 10.1418C7.0905 12.0349 5.17279 13.9349 3.24442 15.8351C6.29725 18.9936 9.78722 22.5365 13.7111 26.4633C18.3256 30.7429 22.9053 35.5898 27.4383 40.0209L39.9807 27.4785L37.6928 25.2365L37.7001 25.2439ZM5.21531 75.7534C6.62892 75.5983 8.12366 75.4255 9.69583 75.2387C10.8768 75.0977 12.0295 74.9567 13.147 74.8157C10.6582 72.4926 8.25397 70.1342 5.98728 67.589C5.81102 69.0801 5.66295 70.4761 5.53605 71.7734C5.39504 73.2293 5.28934 74.5547 5.21531 75.7534ZM61.8263 20.7668C46.4494 36.1861 33.1914 49.3349 22.3331 60.1048L12.1949 70.169C13.4076 71.364 14.7225 72.6119 16.1396 73.9162L65.5103 24.5492C64.3399 23.3295 63.1132 22.071 61.83 20.7702L61.8263 20.7668ZM10.2943 68.2477L20.4289 58.1898C31.2863 47.4199 44.5515 34.2711 59.9222 18.8554C58.7094 17.6427 57.451 16.4089 56.1572 15.1503L6.84975 64.4578C7.82973 65.6212 8.97901 66.8867 10.2974 68.2474L10.2943 68.2477ZM69.6867 6.71825L65.1709 11.234L66.7362 12.8274C67.6421 13.8145 68.6398 14.791 69.5739 15.7604L74.0897 11.2446C73.3071 10.4056 72.5422 9.60186 71.7948 8.83685C71.0862 8.10714 70.3812 7.40213 69.6832 6.71816L69.6867 6.71825ZM68.6256 18.665C67.4023 17.3571 66.1298 16.0704 64.8784 14.7872C63.4753 13.4688 62.097 11.96 60.7115 10.5922L58.0641 13.2397C59.6963 14.8225 61.2508 16.3594 62.7315 17.8471C64.3073 19.43 65.869 21.0269 67.4165 22.6379L69.9758 20.0786L68.6256 18.665Z" fill="black"/>
</svg>
