<svg width="80" height="80" viewBox="0 0 80 80" fill="none" xmlns="http://www.w3.org/2000/svg">
<path fill-rule="evenodd" clip-rule="evenodd" d="M40 0C62.0047 0 80 17.9953 80 40C80 62.0047 62.0047 80 40 80C17.9953 80 0 62.0047 0 40C0 17.9953 17.9953 0 40 0ZM52.6031 27.2233L34.8052 47.3785L27.2667 40.0068C24.8596 37.6598 21.2872 41.3189 23.701 43.6727L33.1555 52.9203L33.1589 52.917C34.2006 53.9319 35.8898 53.8685 36.8514 52.7801L56.4287 30.6113C58.6556 28.0874 54.8334 24.706 52.6031 27.2233ZM40 5.1281C20.826 5.1281 5.1281 20.826 5.1281 40C5.1281 59.1739 20.826 74.8719 40 74.8719C59.1739 74.8719 74.8719 59.1739 74.8719 40C74.8719 20.826 59.1739 5.1281 40 5.1281Z" fill="black"/>
</svg>
