<svg width="200" height="317" viewBox="0 0 200 317" fill="none" xmlns="http://www.w3.org/2000/svg">
<path d="M0.675049 315.992C28.6493 292.944 50.6291 270.817 70.6108 248.691C97.586 219.189 115.569 187.843 126.559 155.576C135.551 128.839 138.548 99.3376 135.551 67.9919" stroke="#203820" stroke-width="1.35" stroke-linecap="round" stroke-linejoin="round"/>
<path d="M75.2638 230.865C51.3329 216.854 37.5784 187.532 38.2862 165.339C58.5915 175.765 79.5368 201.442 75.2638 230.865Z" stroke="#203820" stroke-width="1.35" stroke-linecap="round" stroke-linejoin="round"/>
<path d="M79.1889 238.148C70.2673 220.612 59.345 204.426 54.045 190.099" stroke="#203820" stroke-width="1.35" stroke-linecap="round" stroke-linejoin="round"/>
<path d="M92.52 233.324C117.52 208.324 155.52 199.324 187.52 199.324C167.52 222.324 133.52 236.324 92.52 233.324Z" stroke="#203820" stroke-width="1.35" stroke-linecap="round" stroke-linejoin="round"/>
<path d="M79.8118 238.839C103.137 228.761 126.462 219.524 154.971 213.645" stroke="#203820" stroke-width="1.35" stroke-linecap="round" stroke-linejoin="round"/>
<path d="M117.736 149.126C89.2455 129.779 75.2718 83.5756 75.3962 55.791C105.619 74.1378 125.021 113.743 117.736 149.126Z" stroke="#203820" stroke-width="1.35" stroke-linecap="round" stroke-linejoin="round"/>
<path d="M123.448 163.492C113.45 138.868 100.521 114.037 93.2229 91.6539" stroke="#203820" stroke-width="1.35" stroke-linecap="round" stroke-linejoin="round"/>
<path d="M127.155 176.789C149.68 155.28 174.514 143.954 198.937 138.613C188.178 163.936 158.151 177.913 127.155 176.789Z" stroke="#203820" stroke-width="1.35" stroke-linecap="round" stroke-linejoin="round"/>
<path d="M116.155 182.152C133.289 173.924 151.36 164.967 168.033 158.557" stroke="#203820" stroke-width="1.35" stroke-linecap="round" stroke-linejoin="round"/>
<path d="M135.668 68.7847C109.91 50.17 101.106 22.9213 102.266 4.93088C127.757 19.0815 139.159 44.8302 135.668 68.7847Z" stroke="#203820" stroke-width="1.35" stroke-linecap="round" stroke-linejoin="round"/>
<path d="M135.389 67.6371C129.513 54.4776 122.345 42.0635 116.155 31.3422" stroke="#203820" stroke-width="1.35" stroke-linecap="round" stroke-linejoin="round"/>
<path d="M136.336 110.434C145.864 102.282 154.659 92.7718 166.387 83.9409" stroke="#203820" stroke-width="1.35" stroke-linecap="round" stroke-linejoin="round"/>
<path d="M144.161 103.146C151.045 82.3401 168.271 70.7819 180.913 67.9919C177.717 86.3678 164.934 99.1511 144.161 103.146Z" stroke="#203820" stroke-width="1.35" stroke-linecap="round" stroke-linejoin="round"/>
</svg>
