<svg width="110" height="163" viewBox="0 0 110 163" fill="none" xmlns="http://www.w3.org/2000/svg">
<path fill-rule="evenodd" clip-rule="evenodd" d="M3.75 162.667L0 162.583L0.667 157.917L1.333 156.917L1.667 154.917L3.333 151.083L3.5 149.75L6.833 140.417L8.333 137.25L8.667 135.75L12.667 125.583L14.167 122.75L15.333 118.917L18.667 113.917L29.333 103.917L34.167 96.083L38 87.083V85.417L36.5 82.583L35.667 80.083L35.5 78.417L34.833 76.917L34.667 69.917L35.5 65.417L37.333 58.917L39.333 54.75L42.833 49.417L48.083 42.667L48.75 42.5L49.5 43.083L50.833 47.583L51.5 51.417L53.167 53.083L53.5 53.917V57.25L55.167 60.917L54.667 67.417L53.667 70.75L50.833 76.583L48.833 79.25L40.333 87.583L38.833 90.25L36.5 95.75L33.333 101.417L34.25 101.333L36.75 99.667L39.25 98.5L47.25 95.667L54.25 91.167L60.333 85.25L63.333 81.417L65.167 77.417L67.333 71.25L67.667 68.583L68.5 65.583L69.167 57.75V52.917L67.417 50.833L62.917 48L59.25 45L55.167 41.25L52.667 38.25L50.667 34.417L49 29.917L48.667 24.25L48.167 22.917V21.917L48.583 21.333L50.083 21L50.833 20.25L51.833 16.917L53.083 15.833L54.083 16L55.083 16.667L56.083 18.333L56.917 18.833L57.333 18.75L56.833 16.417L58.5 13.417L58.667 9.25L59.75 8.667H61.25L62 8.083L62.333 5.083L63.25 3.667L64.083 3.5L67.083 5H68.083L68.833 4.417L69.917 1.5L71.083 1.333L72.25 1.667L73.583 0.333H74.417L76.833 3.917L78.5 7.917L79.25 8.333L80.75 6.5L81.917 6L82.333 5.417L81.667 3.25L81.5 0.917L82.417 0L83.333 1.083L83.833 4.583L85.5 5.917L86.167 7.083L86.333 9.583L87.667 12.25L88 16.417L88.25 16.833L89.583 17L90.667 18.083L90.833 20.25L90.5 23.25L89.667 26.417L90.083 26.5L91.667 24.583L92.833 21.583L94.75 18.833L95.917 18.667L96.667 19.417L97.667 21.417L98.833 29.083L98.667 33.583L99.333 35.417L99.167 39.75L98.5 42.917L95.667 50.25L95 50.917L94.667 52.083L93.667 53.583L91 56.917L87.917 60.167L85.083 62L81.083 65.333L77 70.417L61.333 86.75L56.75 91.333L55.25 92.667L52.75 94.167L51.667 95.417L52.083 95.833H52.917L54.083 95.5L65.583 95.333L66.917 94.833L75.917 88.667L80.083 86.833L83.75 85.667L90.417 85.5L92.083 85.833L95.083 87.833L98.75 89L100.417 90.667L102.417 90.167L103 90.917L102.5 92.083L102.667 93.25L104.75 95.333L106.083 95.667L107.75 96.667L109.833 99.083L110 100.25L106.917 102.833L104.417 104L103.083 105L102.167 105.917L101.667 107.583L99.417 109.667L97.25 110.667L93.25 111.167L91.583 112.833L90.75 113H88.917L81.917 111.667L77.917 110.667L75.083 109.5L70.833 105.917L68.5 103.25L67.167 100.583L64.417 97.667L63.583 97.333H49.25L42.417 101.5L37.083 104L32.083 106.833L27.583 109.833L25 112.083L21 116.917L18.833 120.25L12.333 134.583L9.5 142.917L9.333 144.417L8.167 147.083L8 148.417L7 150.583L6.5 153.417L3.833 160.917L4 162.25L3.75 162.667ZM68 77.25L74 71.083L78 65.75L79.5 62.917L79.833 61.75L79.667 58.083L78.333 52.75L78 48.583L80.667 41.917L85.333 34.25L86.333 33.25L86.833 32.25L86.75 31.333L85.917 31.5L84.083 33.5L80.083 35.167L75.167 40.083L72.5 45.083L71.167 51.917L71.333 53.917L70.833 61.083L69.833 67.75L68.833 72.25L67.333 76.417V77.25H68ZM72.5 41.417L74.333 38.75L78.167 35.083V34.25L76.667 32.083L75.333 27.083L73.833 23.083L72.5 17.583L71.333 15.083L70 8.75L69.667 7.75L69.083 7.5L68.833 7.917L68.667 12.417L67.833 14.417L67.25 14.833H66.583L63.917 12.167L63.083 12L61.833 12.917L61.667 15.75L62 17.417L63.167 19.25L63.917 19.833H64.75L65.167 19.417V18.417L65.583 17.833L66.5 18.25L67.333 19.917L69.667 22.583L70.833 24.917L71.667 27.083L72 29.25V41.083L72.5 41.417ZM39.167 83.25L39.667 80.25V71.75L40.417 71.167L41 71.583L41.333 72.583L41 74.75L41.333 76.083L41.917 76.167L42.667 74.25L42.833 70.75L43.167 69.917V67.417L41.667 62.417L40.917 56.833L40 57.417L38.667 60.583L37.833 63.75L37 65.25L36.333 68.917V77.25L37.667 80.917L37.833 82.417L38.25 83.167L39.167 83.25ZM65.167 43.583L64.5 42.083L61.5 38.75L57.833 32.75L57.333 30.75L57.5 29.25L57.167 28.583L56.25 27.667L52.583 26L51.083 24.667L50.417 24.833L50.167 26.083L50.667 27.583L51.167 31.417L53.167 35.75L55 38.75L58.583 41.833L61.417 41.167L64.583 43.5L65.167 43.583ZM101.167 103.75L102.083 103.667L103.417 103L105.083 101.833L106.583 101.333L107 100.75L106.75 100L104.75 100.333L103.417 100L102.833 98.917L103 97.583L101.917 96.5L99.917 96.833L95.417 95.833L92.917 96.667L89.583 97L85.667 98.083V98.583L86.917 99.5L92.083 100.667L95.083 102.667L99.917 103.833L101.167 103.75ZM42 83.917L48.167 77.417L50.5 73.583L52.333 69.417L53.167 66.583L53.667 61.75L53.083 60.833L52.083 61L51.167 61.917L48 66.917L47.167 68.917L47 70.75L46.5 72.083L45.25 72L45 72.25L43.833 77.25L41.5 82.75L41.333 83.917H42ZM71 95.417L73.083 94.833L77.75 94.667L80.083 93.833H81.083L81.917 94.833H82.583L85.75 93.333L88.417 91.5L89.75 90.5L91.5 88.417L90.75 87.667L89.083 87.333H84.917L81.583 88L77.25 89.833L73.083 92.833L69.5 94.917L69.583 95.5L71 95.417ZM69.833 46.417V38.75L70.5 34.25L70.167 28.583L69.333 25.583L68.167 23.917L66.75 22.5L65.75 22L64.25 21.833L63.667 22.25V23.083L65.333 33.75L68 40.917L69 45.917L69.417 46.5L69.833 46.417ZM84.167 60.917L86.417 59.167L90.5 55.083L94.167 49.583L96.5 44.583L97.5 40.583L97.833 37.417L97.25 36.5H96.417L94.083 38.5L93.167 39.75L90.5 46.417L89 48.917L88.667 50.083L85.667 54.917H86.167L88 52.917L88.833 51.083L90.417 49.833L90.5 51.25L88 55.417L83.833 60.083L83.5 60.917H84.167ZM81 33.083L83.083 32.167L85.5 30.083L87 28.083L88.5 24.917L88.833 21.25L88.5 20.25L87.25 19.167L85.583 19.667L82.583 21.833L80.833 23.917L79.833 26.083L79.667 27.917L78.833 30.083V31.917L79.417 32.833L81 33.083ZM92.667 109.583L96.417 109L97.333 108.417V107.917L95.5 106.083L94.5 104.417L92.917 103.333L88.083 101.333L84.25 100.667L84 101.25L84.333 101.917L85.667 103.25L86.833 105.083L86.417 105.833H85.917L82.75 103.333L79.917 100L74.583 99L73.333 99.25L73.75 100L74.75 100.5L79.417 102.167L81.917 104L84.25 106.333L86.083 106.833L91.917 109.667L92.667 109.583ZM89.5 111.083L89.667 110.417L88.917 109.667L85.083 108.333L76.583 103L70.583 100.667L69.5 100.917L69.667 101.917L70.833 103.583L74.917 107.5L82.083 110L89.5 111.083ZM78.167 27.25L78.833 25.75V24.75L79.5 22.75L81.5 19.917L82.5 17.583L82.667 15.917L84 11.75V10.083L83.083 7.5H82.417L80.167 9.917L78.667 14.583V17.417L77.833 20.25L77.5 24.75V27.25H78.167ZM85.333 51.75L87.167 47.417L88.333 41.75L88.5 36.25L87.917 34.833H87.417L86.833 35.417L84 39.583V43.583L84.833 47.917V51.417L85.333 51.75ZM45.333 65.583L46.667 51.25L46.5 50.25L47.333 48.25L47.083 47.667L46.083 47.833L44 50.583L42.833 52.583L42.5 53.917L42.833 58.583L43.667 63.583L44.5 65.417L45.333 65.583ZM76.167 21.583L76.667 18.583L77.167 17.417L77.333 13.417L77.667 12.75L77.5 8.917L76.667 7.583L75.5 4.417L74.75 3.5L74.083 3.333L73.667 3.75L74 7.75L75.167 10.417V12.25L74.167 16.583L75.167 20.75L75.75 21.667L76.167 21.583ZM82 58.583L82.5 57.75L83.167 53.75L83.5 49.25L82.833 43.75L82.25 42.667L81.667 42.917L81.333 43.75L80 47.917L79.667 50.583L81 58.083L81.25 58.5L82 58.583ZM47.333 64.083L48.167 63.417L51.167 58.083V55.25L50.333 53.417L49.5 47.917L48.917 47L48.167 49.083L47.667 56.583L47.167 58.917L46.833 63.583L47 64.083H47.333ZM62.833 29.75L63.167 28.417L62.167 23.417L62.333 22.25L60.667 17.917L60.333 14.917L59.75 14.667L59.167 15.083V26.083L60.5 28.417L61.917 29.833L62.833 29.75ZM87.667 96.083L92.083 94.833L94.917 93.333L96.833 91.583L97.167 90.583L96.583 90L94.583 89.333L93.083 89.667L85.5 95.417L85.583 96.167L87.667 96.083ZM90.333 41.25L92.333 36.25L93.5 28.75L93.667 25.583L93.25 24.833L92.333 25.583L91.167 27.583L90.333 30.25L90 33.75V41.25H90.333ZM95.167 35.583L97 34.083L97.667 32.417L97.333 27.583L96.667 24.083L96.083 23.333L95.333 24.417L94.833 31.917L94.167 34.417V35.417L95.167 35.583ZM57.167 25.75L57.667 24.917L57.333 22.417L53.917 18.333L53.333 20.083L51.333 22.25V23.083L55.583 25.667L57.167 25.75ZM65.5 40.25L65.667 39.917L63.167 32.75L61.583 31.167L59.75 30.667L59.667 31.75L60.167 33.25L63.833 39.083L64.75 40.167L65.5 40.25ZM66.833 11.917L67.5 10.75L67.667 7.583L66.417 6.5L64.25 5.667L63.667 6.417L63.167 9.75L64.417 11.333L65.75 12L66.833 11.917ZM83.833 19.417L85.5 17.75L86 16.75L86.167 13.417L85.417 12.333H84.917L84.667 12.75V14.083L83.833 17.083L82.667 18.583L82.917 19.5L83.833 19.417ZM72.833 11.917L73.5 11.083V9.25L72.5 5.75L72 4.75L71.083 4.333L70.667 4.75V5.75L71.667 8.25L72.167 11.417L72.583 12L72.833 11.917ZM67.167 48.083L66.833 47.25L64.417 45.167L61.25 43.333L60.333 43.583L60.5 44.417L62.417 45.833L66.417 48.167L67.167 48.083ZM72.667 99.083L72.417 98.5L70.917 97.5L69.083 97.667L68.25 97.167H67.417L67.167 97.583L67.5 98.417L68.25 98.833L72.667 99.083ZM101.667 95.583V94.917L100.75 94.167L97.083 93.667L96.167 94.25L96.583 95L98.583 94.667L100.583 95.667L101.667 95.583ZM99.667 106.75L100.5 106.083L100.25 105.167L97.5 105.25L97.667 105.917L98.417 106.667L99.667 106.75ZM88 30.083L89.5 28.083L89.583 26.833L88.833 27.25L87.5 29.917L87.583 30.167L88 30.083ZM79.667 97.25L81 96.417L81.083 95.667L79.917 95.833L78.833 96.75L78.917 97.167L79.667 97.25ZM106.5 98.417V98.083L105.75 97.5L104.667 97.75L105.25 98.5L106.5 98.417ZM61.167 11.583L61.333 11.25L61.083 11L60.333 11.083L60.417 11.667L61.167 11.583ZM38.333 101.417L38.25 101.167L37.833 101.25L37.917 101.5L38.333 101.417Z" fill="#7D7326"/>
</svg>
