<svg width="88" height="80" viewBox="0 0 88 80" fill="none" xmlns="http://www.w3.org/2000/svg">
<path d="M31.5829 70.6145C30.689 70.6145 29.9441 70.0186 29.7952 69.1248C25.7728 47.5233 23.0912 44.8417 1.48976 40.8194C0.595903 40.6704 0 39.9255 0 39.0317C0 38.1378 0.595903 37.3929 1.48976 37.2439C23.0912 33.2216 25.7728 30.54 29.7952 8.93855C29.9441 8.04469 30.689 7.44879 31.5829 7.44879C32.4767 7.44879 33.2216 8.04469 33.3706 8.93855C37.3929 30.54 40.0745 33.2216 61.676 37.2439C62.5698 37.3929 63.1657 38.1378 63.1657 39.0317C63.1657 39.9255 62.5698 40.6704 61.676 40.8194C40.0745 44.8417 37.3929 47.5233 33.3706 69.1248C33.2216 70.0186 32.4767 70.6145 31.5829 70.6145ZM10.7263 39.0317C23.8361 42.3091 28.3054 46.7784 31.5829 59.8883C34.8603 46.7784 39.3296 42.3091 52.4395 39.0317C39.3296 35.7542 34.8603 31.2849 31.5829 18.175C28.3054 31.2849 23.8361 35.7542 10.7263 39.0317Z" fill="black"/>
<path d="M68.8268 80C67.9329 80 67.1881 79.4041 67.0391 78.6592C64.0596 68.0819 62.1229 66.1453 51.6946 63.3147C50.9497 63.1657 50.3538 62.4209 50.3538 61.527C50.3538 60.6331 50.9497 59.8883 51.6946 59.7393C62.2719 56.7598 64.2085 54.8231 67.0391 44.3948C67.1881 43.6499 67.9329 43.054 68.8268 43.054C69.7206 43.054 70.4655 43.6499 70.6145 44.3948C73.594 54.8231 75.5307 56.9088 85.959 59.7393C86.7039 60.0372 87.2998 60.6331 87.2998 61.527C87.2998 62.4209 86.7039 63.1657 85.959 63.3147C75.3817 66.2942 73.445 68.2309 70.6145 78.6592C70.4655 79.4041 69.7206 79.851 68.8268 80ZM58.2495 61.378C63.9106 63.6127 66.5922 66.2942 68.8268 71.9553C71.0614 66.2942 73.743 63.6127 79.553 61.378C73.892 59.1434 71.0614 56.3129 68.8268 50.8008C66.7411 56.3129 63.9106 59.1434 58.2495 61.378Z" fill="black"/>
<path d="M65.1024 25.9218C64.2086 25.9218 63.4637 25.3259 63.3147 24.581C61.378 17.7281 60.3352 16.6853 53.4823 14.7486C52.7374 14.4507 52.1415 13.8547 52.1415 12.9609C52.1415 12.067 52.7374 11.3222 53.4823 11.1732C60.3352 9.2365 61.378 8.19367 63.3147 1.34078C63.6126 0.595905 64.2086 0 65.1024 0C65.9963 0 66.7411 0.595905 66.8901 1.34078C68.8268 8.19367 69.8696 9.2365 76.7225 11.1732C77.4674 11.4711 78.0633 12.067 78.0633 12.9609C78.0633 13.8547 77.4674 14.5996 76.7225 14.7486C69.8696 16.6853 68.8268 17.7281 66.8901 24.581C66.7411 25.4749 65.9963 25.9218 65.1024 25.9218ZM59.5903 12.9609C62.2719 14.3017 63.9106 15.7914 65.1024 18.473C66.4432 15.7914 67.9329 14.1527 70.6145 12.9609C67.9329 11.6201 66.2942 10.1304 65.1024 7.44879C63.7616 10.1304 62.2719 11.6201 59.5903 12.9609Z" fill="black"/>
</svg>
