<svg width="83" height="80" viewBox="0 0 83 80" fill="none" xmlns="http://www.w3.org/2000/svg">
<path fill-rule="evenodd" clip-rule="evenodd" d="M41.161 0.0109299C41.0447 0.0255996 40.9306 0.0545655 40.8213 0.0971719L0.904549 15.6697C0.87515 15.6863 0.846349 15.7039 0.818199 15.7225C0.738985 15.7609 0.663498 15.8066 0.592708 15.8589C0.544172 15.8913 0.497668 15.9266 0.45346 15.9646C0.349732 16.0596 0.260621 16.1693 0.189023 16.2903C0.182304 16.3051 0.175839 16.32 0.16963 16.335C0.10748 16.4543 0.0625209 16.5818 0.0360917 16.7136C0.030034 16.7496 0.0253619 16.7858 0.022086 16.8222C0.011216 16.8792 0.00384014 16.9369 0 16.9948V63.0053C0.00134793 63.2917 0.0889132 63.571 0.251286 63.8068C0.413659 64.0427 0.643309 64.2242 0.910313 64.3276L0.904388 64.3416L40.8212 79.903C41.1534 80.0321 41.5218 80.0321 41.854 79.903L81.7596 64.3416C82.0274 64.2366 82.2571 64.0502 82.4185 63.8122C82.58 63.5742 82.6657 63.2929 82.6644 63.0053V16.9948C82.6615 16.966 82.6577 16.9372 82.6531 16.9086C82.6497 16.8544 82.6432 16.8005 82.6337 16.7471C82.6244 16.6879 82.6115 16.6293 82.5949 16.5717C82.5697 16.495 82.538 16.4205 82.5002 16.3491C82.4898 16.3246 82.4787 16.3005 82.4668 16.2767C82.4058 16.1731 82.3319 16.0777 82.2469 15.9927C82.1663 15.9137 82.0766 15.8446 81.9797 15.7867C81.9551 15.772 81.93 15.758 81.9046 15.7447C81.8578 15.7169 81.8095 15.6919 81.7598 15.6696L67.6098 10.1466L67.3871 9.58703L66.7858 9.82642L53.9943 4.83507L41.8541 0.0969998C41.6338 0.0112083 41.3956 -0.0182565 41.161 0.0109299ZM41.3364 2.95062L50.0775 6.36077L14.0886 20.405L5.34465 16.9949L41.3364 2.95062ZM53.9943 7.88906L62.908 11.366L27.2448 25.5355L18.0138 21.9361L53.9943 7.88906ZM66.8081 12.8888L77.3308 16.9949L41.3364 31.0307L31.1421 27.0555L66.8081 12.8888ZM79.8251 19.0743V62.0338L42.7589 76.4984V33.5389L79.8251 19.0743ZM2.85044 19.0803L13.1811 23.1112V39.26C13.1815 39.5461 13.268 39.8256 13.4293 40.0619C13.5907 40.2982 13.8194 40.4805 14.0858 40.5851L24.4833 44.6466C24.6992 44.7313 24.9326 44.762 25.1631 44.7361C25.3936 44.7101 25.6143 44.6283 25.806 44.4978C25.9978 44.3672 26.1547 44.1918 26.2633 43.9869C26.3719 43.7819 26.4288 43.5535 26.4292 43.3215V28.9265L27.2504 28.6009L39.9055 33.5365V76.4932L2.85043 62.034L2.85044 19.0803ZM16.0345 24.2247L23.7818 27.2451C23.6524 27.4606 23.5823 27.7065 23.5785 27.9578V41.2365L16.0345 38.2801L16.0345 24.2247Z" fill="black"/>
</svg>
