<svg width="84" height="120" viewBox="0 0 84 120" fill="none" xmlns="http://www.w3.org/2000/svg">
<path d="M83.0079 1.125C82.6009 0.421 81.8598 0 81.0238 0C80.1838 0 79.3179 0.399 78.1289 1.335C78.0859 1.369 78.0439 1.405 78.0039 1.442L6.58785 67.887C4.55885 69.527 4.70685 71.268 4.86685 71.946C5.08285 72.861 5.88585 74.488 8.83185 75.095L21.6449 77.748C22.5209 77.929 22.9719 78.317 23.0919 78.595C23.1239 78.668 23.2198 78.891 22.9478 79.331L0.925849 115.137C0.26685 116.208 -0.40115 117.598 0.29585 118.844C0.69785 119.565 1.44685 119.994 2.29785 119.995C3.10985 119.995 3.99485 119.602 5.16785 118.724L66.8649 72.519C69.0199 70.905 68.9049 69.132 68.7549 68.445C68.5559 67.53 67.7829 65.899 64.8409 65.257L46.4558 61.249C45.5618 61.054 45.0909 60.639 44.9479 60.316C44.9109 60.233 44.8018 59.988 45.0278 59.56L82.3898 4.95C82.4188 4.908 82.4468 4.864 82.4718 4.819C83.0938 3.742 83.7149 2.349 83.0079 1.125ZM41.6749 57.377C41.6459 57.42 41.6179 57.464 41.5919 57.51C40.7799 58.922 40.6709 60.535 41.2919 61.936C42.0029 63.54 43.5749 64.713 45.6049 65.157L63.9899 69.165C64.1879 69.208 64.3518 69.256 64.4858 69.304C64.4798 69.308 64.4738 69.313 64.4678 69.318L7.61785 111.893L26.3559 81.428C27.2219 80.022 27.3709 78.411 26.7649 77.009C26.0749 75.412 24.5038 74.253 22.4548 73.831L9.64085 71.178C9.40785 71.13 9.22085 71.074 9.07485 71.021C9.09285 71.005 9.11285 70.99 9.13285 70.974C9.17585 70.94 9.21685 70.905 9.25785 70.867L73.0589 11.507L41.6749 57.377Z" fill="black"/>
</svg>
