<svg width="96" height="80" viewBox="0 0 96 80" fill="none" xmlns="http://www.w3.org/2000/svg">
<path d="M95.4712 40.6597C95.4712 45.1532 93.7298 49.3625 90.559 52.5645C87.329 55.7669 83.0882 57.5082 78.6259 57.5082H58.9699C57.426 57.5082 56.1624 56.2446 56.1624 54.7008C56.1624 53.1569 57.426 51.8933 58.9699 51.8933H78.6259C81.6309 51.8933 84.4383 50.7126 86.6021 48.608C88.7067 46.4757 89.8598 43.6644 89.8598 40.6633C89.8598 36.1698 87.1906 32.1264 83.0642 30.3294C81.9704 29.8516 81.2952 28.7302 81.378 27.5495C81.378 27.2415 81.4333 26.9612 81.4333 26.6493C81.4333 20.442 76.4067 15.4197 70.2038 15.4197C68.1545 15.4197 66.1328 15.9804 64.3638 17.0781C63.0726 17.8639 61.4141 17.473 60.5731 16.237C56.1348 9.5836 48.7228 5.62307 40.7189 5.62307C28.3359 5.62307 18.1172 14.8906 16.9638 27.2139C16.8533 28.4499 15.9254 29.4607 14.717 29.6857C12.4702 30.1359 10.4762 31.202 8.90461 32.7736C6.80001 34.9059 5.61933 37.745 5.61933 40.7183C5.61933 46.9255 10.646 51.9479 16.8489 51.9479H36.5049C38.0488 51.9479 39.3124 53.2114 39.3124 54.7553C39.3124 56.2992 38.0488 57.5627 36.5049 57.5627H16.8489C7.5538 57.5627 0 50.0089 0 40.7138C0 36.2203 1.7414 32.011 4.91214 28.809C6.79172 26.9294 9.06614 25.5237 11.6248 24.7103C13.9268 10.5028 26.1124 0 40.7424 0C49.7848 0 58.2353 4.09871 63.795 11.1194C65.8443 10.2783 68.0082 9.82822 70.2234 9.82822C79.321 9.82822 86.7599 17.074 87.0723 26.0848C92.2371 29.0897 95.4947 34.6217 95.4947 40.7148L95.4712 40.6597ZM57.6744 44.9834C58.4049 44.9834 59.1077 44.7031 59.6685 44.17C60.7622 43.0763 60.7622 41.3073 59.6685 40.2095L49.7573 30.2984C49.5046 30.0456 49.1966 29.8206 48.8571 29.6824C48.5214 29.5402 48.1542 29.4573 47.7633 29.4573C47.3685 29.4573 47.0328 29.5402 46.6696 29.6824C46.3339 29.8245 46.022 30.018 45.7693 30.2984L35.8582 40.2095C34.7644 41.3032 34.7644 43.0722 35.8582 44.17C36.9519 45.2637 38.7209 45.2637 39.8187 44.17L44.9559 39.0328V77.1926C44.9559 78.7364 46.2194 80 47.7633 80C49.3072 80 50.5707 78.7364 50.5707 77.1926V39.0328L55.7079 44.17C56.2686 44.7307 56.9715 44.9834 57.702 44.9834H57.6744Z" fill="black"/>
</svg>
