<svg width="116" height="138" viewBox="0 0 116 138" fill="none" xmlns="http://www.w3.org/2000/svg">
<path fill-rule="evenodd" clip-rule="evenodd" d="M61.083 137.334H60.25L59.083 136.667L57.916 135L57.166 135.584L57.25 136.834L53.75 137.167L52.666 136.75L54.583 135L56.75 134.334L57.333 133.75V132.917L54.416 126.667L53.583 126.834L52.916 127.5L48.916 129.667L43.416 133.167L42.583 134L41.75 134.334L40.833 133.75V132.584L41.25 132L43.25 131.167L45.583 129.334L53.666 124.75V123.584L52.25 119.667L45.416 120.667L37.75 122.334L32.25 122.834L26.083 124.167H24.416L23.833 123.417V122.75L24.416 122.167L27.75 122L30.583 121.167H32.25L36.583 120.167H38.416L41.083 119.5L44.583 119.167L47.083 118.334L51.083 118L51.833 117.417V115.75L51.5 112.417L50.75 111.5L11.083 111.667L8.916 112L7.916 111.834L7 111.084V110.584L7.583 110H50.416L51.333 109.25L51.166 105.584L51.666 104.084L51.5 103.417L50.583 102.834H49.083L37.083 100.5L34.083 100.334L31.25 99.5L28.083 99.334L20.583 97.834L18.25 97.667L17.083 97.334L16.666 96.75V96.084L17.083 95.5L18.083 95.334L19.583 95.834L22.916 96.167L24.916 96.834L27.583 97L30.25 97.667L42.583 99.5L44.083 100L51.416 101L52 100.25V98.417L53.083 94.834L52.583 94.334H51.25L49.416 93.5L47.916 93.334L46.75 92.667L42.416 91.5L40.75 90.667L32.916 88.5L22.583 84.834L17.583 83.5L15.25 82.5L13.916 82.334L12.75 81.667L8.75 80.5L7.25 79.667L5.75 79.5L0.916 77.834L0.166 77.25L0 76.25L0.416 75.834L2.75 76.167L4.25 77L5.583 77.167L25.416 84L26.75 84.167L35.75 87.334L37.083 87.5L41.583 89.167L46.083 90.334L47.583 91.167L48.916 91.334L52.75 92.667L53.75 92.5L54.5 91.25L54.833 89.417L55.833 87.75L55.416 86.667L50.583 84.667L48.916 83.5L46.25 82.5L37.25 77.834L35.416 77.167L34.583 76.5L24.583 71.834L23.666 71.084V70.25L24.25 69.667H24.916L27.75 71.334L38.416 76.334L39.583 77.167L42.083 78L43.25 78.834L54.75 84.334L56.083 85.334H56.583L57.333 84.75L58.333 82.584L59.166 81.584L59.333 80.75L39.75 66.5L33.75 61.667L25.25 55.5L23.25 53.667L14.916 47.667L13.5 46.25L13.333 45.584L14.416 45L15.416 45.5L37.75 62.834L45.75 68.334L47.416 69.834L54.75 75L57.416 77.334L59.75 79L60.916 78.834L63.333 75.584L63.666 74.917L63.5 74.25L57.083 68.334L46.916 57.834L38.166 49.584L38 48.584L38.583 48.167L39.916 48.5L43.583 52.334L48.916 57.167L64.583 73.167H65.416L66.666 71.917L69 69.417V68.75L66.666 65.584L64 62.75L48.833 42.75L42 34.417L35.666 25.584L34.333 24.25L34 23.084L34.416 22.5H35.416L36 22.917L37.333 25.084L51.166 42.75L55.166 48.417L67.333 63.584L69.666 67.084L70.416 67.834H70.916L74.166 65.25L74.333 64.417L72 60.584L70 56.25L61 39.417L59 34.917L57.666 32.917L57.333 31.75L57.916 31L58.916 31.167L60.166 32.917L61.5 36.084L75.833 63.584L76.583 64L80.25 62L81 61.25V60.417L75.666 46.084L74.833 44.584L72.666 37.584L72 36.417L71.666 34.584L70 30.917L63.5 12.084L61.833 8.417V7.25L62.416 6.667H63.083L64 7.75V8.417L68.166 19.584V20.25L70 24.417L70.333 26.084L71 27.084L72.166 31.25L73 32.75L74.5 37.917L76.166 41.75L77.333 45.75L78.166 47.25L78.5 49.084L81 54.917L82.5 60.084L82.916 60.5H83.75L86.083 59.334L88.25 59L88.666 58.584V57.584L87.833 55.084L86.666 48.084L84.166 37.584L83.666 33.417L81.5 23.917V22.917L82.25 22L83.333 22.75L83.666 25.417L86 35.584L86.166 38.417L87 40.584L90.333 57.584L90.916 58.167H91.916L93.083 57.5H95.083L95.833 56.584L95 41.917L94.5 22.417L93.666 10.417V3.75L93.333 2.25L93.5 0.417L94.083 0H94.75L95.5 0.75L95.333 6.084L96 14.75L96.5 32.417L97.166 43.417V56.417L98.083 57.334L103.25 57.167L103.666 56.75L104 50.584L105 42.584L105.5 40.75L106.833 26.75L107.333 24.417V22.084L107.75 21.5L108.75 21.334L109.333 22.084V22.75L108.333 29.417L108.166 33.584L106 49.417L105.333 56.75L105.916 57.334L108.25 58L111.416 58.334L111.833 57.75L112.833 51.417L114.583 48L115.166 49.084V51.25L114.666 56.584L114 57.584L113.833 58.584L114.666 59.25L114.833 61.084L114.416 61.667L113.083 60.834L111.416 60.334H109.583L104.583 59.167L96.916 59L94.75 59.5L91.416 59.667L88.583 60.834L84.916 61.667L76.916 65.667L71.916 69.334L65.5 75.75L62.333 79.917L58.166 86.917L56.166 91.417L54.166 98.25L54 100.917L53.666 101.417L53.166 105.084L53.333 114.25L54.333 119.584L55.166 121.75L55.333 123.25L57.5 128.917L58.666 131.25L60.333 133.584L61.666 136.417L61.083 137.334ZM44.916 137.334L41 137.25L41.416 136.667L42.416 136.5L43.083 136.834H43.916L44.25 136.5L45.666 136.75L45.083 136.834L44.916 137.334Z" fill="#7D7326"/>
</svg>
